<svg xmlns="http://www.w3.org/2000/svg" viewBox="0 0 721.01 378"><defs><style>.cls-1{fill:#010101;stroke:#1b344e;stroke-linecap:round;stroke-width:1.5px;}.cls-2{fill:#1e1e1c;}</style></defs><title>Element 2</title><g id="Ebene_2" data-name="Ebene 2"><g id="Ebene_1-2" data-name="Ebene 1"><g id="Curve"><path id="curva_3D.Curve" data-name="curva 3D.Curve" class="cls-1" d="M.75,97.49H20.6V62.88H40.76V97.49H74.23l-2.16,17.68H40.76L38.6,206.63l0,1.63,0,1.63.06,1.63.11,1.62.15,1.62.18,1.62.23,1.61.27,1.61.3,1.6.35,1.59.39,1.58.42,1.58.13.61.16.6.18.59.22.59.24.57.27.56.29.54.32.53.35.52.37.49.4.49.42.46.44.44.46.42.48.39.5.38.51.34.53.32.55.3.55.27.58.24.58.21.59.19.61.16.91.23.92.22.92.2.92.19.93.17.93.16.93.14.93.13.94.12.93.1.94.08.94.07,1.08.1,1,.08,1,.08.91.07.86.06.8,0,.74,0,.67,0,.61,0,.55,0h1.66l.58,0,.76,0,.91,0,1.07,0,1.23,0,1.37.05,1.53.05,1.67.06,1.82.06,2.09.13,2.29.16,2.47.19,2.67.23,2.86.27,3.06.31,3.25.35,3.44.4,3.63.43,3.83.49,4,.54,4.22.58.79.15.8.14.8.15.81.15.82.15.82.16.83.15.84.16.84.16.85.16.85.16.86.17.87.17.88.17.88.17.88.17.9.18.9.17.9.18.92.18.91.19.93.18.93.19.94.18.94.19.95.2,1,.19,1,.2,1,.2,1,.2,1,.21,1,.21,1,.21,1,.22,1,.22,1,.23,1.05.26,1.06.27,1.07.27,1.08.29,1.09.29,1.1.29,1.11.31,1.11.31,1.13.31,1.14.33,1.14.33,1.16.34,1.18.37,1.2.39,1.21.38,1.21.4,1.23.4,1.23.41,1.25.42,1.26.42,1.27.43,1.27.44,1.29.45,1.3.45,1.33.48,1.34.5,1.36.49,1.36.51,1.38.51,1.39.52,1.39.52,1.41.54,1.42.53,1.43.55,1.45.55,1.45.56,1.59.61,1.61.62,1.61.62,1.63.63,1.64.63,1.66.63,1.66.64,1.68.65,1.69.65,1.7.65,1.72.66,1.72.66,1.78.68,1.79.69,1.8.69,1.81.69,1.82.7,1.84.7,1.85.7,1.87.7,1.88.71,1.89.71,1.9.71,1.92.72,2,.72,2,.73,2,.72,2,.73,2,.73,2,.73,2,.73,2.06.74,2.08.73,2.08.73,2.1.74,2.12.73,2.16.73,2.18.74,2.2.73,2.21.74,2.22.74,2.24.75,2.26.75,2.26.76,2.29.77,2.3.79,2.31.79,2.34.81,2.42.95,2.44,1,2.47,1,2.48,1,2.51,1,2.53,1.05,2.54,1.08,2.57,1.09,2.59,1.12,2.61,1.13,2.63,1.15,2.65,1.17,2.76,1.28,2.79,1.29,2.81,1.31,2.84,1.31,2.86,1.33,2.88,1.35,2.9,1.35,2.93,1.37,3,1.38,3,1.39,3,1.4,3,1.42,3.18,1.38,3.19,1.38,3.21,1.39,3.24,1.38,3.25,1.39,3.28,1.38,3.3,1.38,3.32,1.38L386,339.6l3.37,1.38,3.38,1.37,3.41,1.36,3.54,1.32,3.56,1.3,3.58,1.28,3.6,1.27,3.62,1.26,3.65,1.24,3.66,1.22,3.68,1.21,3.7,1.18,3.72,1.17,3.74,1.16,3.76,1.13,3.88,1,3.89.95,3.91.91,3.92.88,3.94.85,3.95.82,4,.78,4,.76,4,.72,4,.69,4,.65,4,.62,4.1.35,4.11.31,4.12.27,4.11.22,4.13.17,4.12.13,4.13.09,4.14,0h4.13l4.14-.06,4.14-.1,4.14-.15,4.13-.49,4.12-.55,4.11-.59,4.1-.66,4.09-.7,4.08-.76,4.07-.81,4.05-.87,4-.92,4-1,4-1,4-1.08,3.88-1.46,3.84-1.52,3.82-1.58,3.79-1.62,3.77-1.69,3.74-1.73,3.7-1.79,3.68-1.85,3.65-1.9,3.62-2,3.59-2,3.56-2.06,3-2.28,3-2.32,2.95-2.36,2.92-2.39,2.87-2.42,2.83-2.46,2.8-2.49,2.75-2.53,2.7-2.56,2.67-2.59,2.63-2.62,2.58-2.65,2.33-2.89,2.27-2.9,2.24-2.92,2.18-2.95,2.14-3,2.1-3,2.05-3,2-3,1.95-3,1.92-3.07,1.87-3.08,1.82-3.1,1.54-3.24,1.49-3.25,1.45-3.25,1.41-3.26,1.35-3.26,1.32-3.27,1.27-3.28,1.22-3.28,1.18-3.29,1.14-3.29,1.09-3.29,1-3.3.78-3.35.73-3.34.7-3.33.65-3.33.61-3.32.58-3.32.53-3.31.5-3.3.45-3.29.42-3.28.38-3.28.33-3.26.11-3.24.07-3.23,0-3.21v-3.19l0-3.18-.06-3.16-.09-3.14-.13-3.13-.15-3.11-.18-3.09-.22-3.07-.24-3.06-.43-3-.46-3-.48-2.94-.5-2.91-.53-2.89-.55-2.87L706.8,136l-.59-2.83-.62-2.79-.64-2.78-.66-2.75-.68-2.73-.75-2.27-.76-2.25-.76-2.23-.78-2.21-.79-2.18-.8-2.17-.8-2.14-.82-2.12-.82-2.11-.83-2.08-.84-2.06-.85-2-.92-1.95-.92-1.93-.92-1.91-.93-1.89-.94-1.87-.93-1.85-1-1.83-.94-1.81-.95-1.79-1-1.77-1-1.75-1-1.73-1-1.64-1-1.63-1-1.61-1-1.59-1-1.58-1-1.55-1-1.54-1-1.52-1-1.5-1-1.48-1-1.46-1-1.45-1-1.37-1-1.35-1-1.34-1-1.32-1-1.3-1-1.29-1-1.27-1-1.25-1-1.24-1-1.22-1-1.2-1-1.19-1-1.14-1-1.13-1-1.12-1-1.12-1-1.11-1-1.1-1-1.1-1-1.08-1-1.08-1-1.06-1-1.06-1-1-1.13-1-1.14-1-1.15-.95-1.16-.92-1.16-.91-1.18-.89-1.18-.87-1.19-.86-1.2-.83-1.2-.81-1.22-.8L632,16.54l-1.1-.55-1.1-.55-1.11-.53-1.1-.51-1.11-.5-1.11-.49-1.11-.47-1.12-.46L622.06,12l-1.12-.43-1.12-.42-1.12-.4-1.15-.33-1.16-.31-1.15-.3-1.15-.29-1.15-.27L611.8,9l-1.14-.25-1.14-.24-1.14-.22-1.13-.22-1.13-.2L605,7.71l-1.13-.12-1.13-.12-1.12-.1-1.11-.1-1.11-.08-1.1-.08L597.21,7,596.13,7l-1.08-.05-1.07,0-1.07,0-1,0-1.05,0-1,0-1,0-1,0-1,0-1,.06-1,.07-1,.07-1,.07-1,.09-1,.08-.94.1L579,7.7l-.91.13-.9.14-.89.14-.88.14-.87.14-.85.14-.85.15-.84.15-.83.16-.82.16-.81.16-.78.18-.78.18-.76.18-.75.18-.74.18-.74.19-.72.18-.72.19-.7.18-.7.19-.68.19-.68.18-.54.17-.54.16-.53.16-.52.17-.52.16-.51.16-.51.16-.5.17-.5.16-.49.16-.49.16-.48.16-.46.16-.46.16-.45.16-.45.16-.44.16-.44.16-.43.16-.43.16-.42.15-.42.16-.41.15-.41.16-.39.15-.39.15-.38.15-.38.15-.38.15-.37.15-.37.15-.36.14-.36.15-.35.14-.35.14-.34.14-.34.14-.33.14-.32.14-.32.13-.32.14-.31.13-.31.13-.31.13-.3.13-.3.13-.29.13-.29.12-.28.13-.28.12-.27.12-.27.12-.27.12-.26.11-.26.12-.26.11-.25.12-.25.11-.25.11-.24.11-.24.1-.23.11-.23.1-.23.1-.22.11-.22.1-.22.1-.21.09-.21.1-.21.09-.21.1-.2.09-.79.46-1.73,1-2.48,1.52-3,1.88-3.42,2.12-3.62,2.23-3.62,2.24-3.44,2.12-3.06,1.88-2.51,1.53L506,39.38l-.83.47-.25.41.12.76.42,1,.66,1.27.83,1.43.92,1.49,1,1.51.93,1.45.81,1.31.65,1.12.41.84.1.5-.75.38-1.87.21-2.76.07L503,53.59l-3.89-.18L495,53.13l-4.12-.37-3.92-.44-3.47-.49-2.81-.54-1.94-.57-.82-.57.26-1.21,1.11-2.3L481,43.48l2.3-3.8L486,35.47l2.85-4.39,2.89-4.32,2.77-4L497,19.19l2-2.78,1.42-1.8.66-.6.21.51.19,1.26.18,1.85.17,2.28.18,2.57.19,2.7.21,2.68.23,2.49.27,2.17.32,1.67.36,1,.43.24L505,35l1.71-1L509,32.54l2.86-1.72,3.2-1.95,3.4-2.06,3.44-2.09,3.34-2,3.08-1.85L531,19.26,533.14,18l1.42-.77.2-.11.21-.1.21-.11.22-.1.22-.11.22-.11.22-.12.23-.11.23-.12.23-.11.24-.12.24-.12.25-.12.25-.13.26-.12.26-.13.26-.13.27-.13.27-.13.27-.13.28-.14.28-.14.29-.13.29-.14.3-.15.31-.14.3-.15.32-.14.32-.15.32-.15.32-.15.33-.15.34-.16.34-.16.34-.15.35-.16.36-.16.37-.17.37-.16.37-.16.38-.17.39-.17.39-.17.39-.17.4-.17.41-.18.41-.17.42-.18.43-.17.44-.18.44-.18.45-.18.45-.18.46-.18.47-.19.47-.18.47-.19.49-.18.48-.19.5-.19.51-.19.52-.18.52-.19.54-.19.53-.19.55-.19.55-.19.55-.19.57-.19.57-.19.57-.19.58-.2.74-.22.74-.22.75-.22.76-.22.77-.22.78-.22.8-.22.8-.21.81-.22.82-.21.83-.21.85-.21.86-.17.88-.18.89-.17.89-.17L575,2.6l.92-.17.93-.15.94-.16,1-.15,1-.15,1-.14,1-.14,1-.1,1-.1,1-.09,1-.08,1-.08L587.88,1,589,1,590,.9l1.09,0,1.1,0,1.11,0,1.12,0,1.13,0,1.14,0,1.15.05L599,.93l1.16.07,1.17.08,1.18.09,1.19.1,1.19.11,1.2.13,1.21.13,1.22.14,1.2.22,1.21.24,1.21.24,1.21.26L614.6,3l1.22.28,1.22.3,1.23.32,1.23.32,1.23.35,1.23.35,1.24.37,1.19.46,1.18.47,1.19.48,1.19.5,1.18.51,1.18.53,1.18.55,1.17.56,1.18.57,1.17.59,1.16.6,1.17.62,1.29.86,1.27.87,1.28.89,1.26.91,1.25.93,1.24.95,1.23,1,1.23,1,1.21,1,1.2,1,1.2,1,1.18,1.05,1.1,1.09,1.09,1.09,1.09,1.1,1.09,1.1,1.09,1.11,1.08,1.13,1.09,1.12,1.08,1.14L662,33.22,663,34.37l1.08,1.16,1.07,1.17,1.06,1.24,1.06,1.25,1.06,1.28,1.07,1.29,1.07,1.31,1.07,1.33,1.07,1.34,1.08,1.36,1.07,1.38,1.08,1.4L677,51.3l1.08,1.43,1.06,1.51,1.07,1.54,1.06,1.55,1.06,1.57,1.06,1.6,1.07,1.61,1.06,1.63,1.06,1.65,1.06,1.68,1.06,1.69,1.06,1.71,1.06,1.73,1,1.83,1,1.84,1,1.87,1,1.88,1,1.91,1,1.93,1,2,1,2,1,2,1,2,1,2,1,2.07.89,2.15.88,2.18.87,2.2.87,2.23.85,2.24.84,2.27.83,2.29.82,2.32.81,2.33.8,2.36.79,2.38.77,2.41.7,2.88.67,2.9.65,2.93.62,2.95.6,3,.58,3,.55,3,.53,3,.49,3.07.48,3.1.45,3.11.42,3.15.22,3.21.18,3.24.16,3.25.12,3.28.08,3.29.06,3.31v6.66l0,3.36-.09,3.38-.13,3.39-.16,3.4-.41,3.43-.45,3.44-.5,3.44-.53,3.45-.58,3.46-.63,3.47-.66,3.47-.71,3.48-.75,3.48-.8,3.49-.83,3.49-.89,3.5-1.17,3.44-1.22,3.43-1.26,3.43-1.31,3.42-1.36,3.42-1.41,3.41-1.46,3.4-1.5,3.39-1.55,3.39-1.6,3.37-1.65,3.37-1.69,3.35-2,3.2-2,3.18-2.09,3.16-2.14,3.14L684.46,297l-2.23,3.1L680,303.15l-2.32,3-2.38,3-2.42,3-2.47,3-2.51,2.95-2.78,2.7-2.83,2.66-2.87,2.63-2.91,2.59-3,2.56-3,2.52-3,2.48-3.08,2.44-3.12,2.41-3.16,2.37-3.2,2.32-3.24,2.29-3.76,2-3.8,2L620.3,354l-3.85,1.86-3.88,1.8-3.9,1.75-3.93,1.68-4,1.64-4,1.57-4,1.52-4,1.46-4.06,1.4-4.18,1-4.19,1-4.2.9-4.21.84-4.22.79-4.23.73-4.24.68-4.25.62-4.26.57-4.26.51-4.27.46-4.27.41-4.27.06-4.27,0-4.26,0-4.25-.08L512.6,377l-4.25-.17-4.23-.21-4.23-.25-4.23-.3-4.21-.35-4.21-.39-4.2-.43-4.11-.67-4.1-.71-4.08-.75-4.06-.77-4.05-.8-4-.84-4-.86-4-.89-4-.92-4-.95-3.94-1-3.93-1-3.8-1.14-3.77-1.16-3.76-1.17-3.73-1.18-3.72-1.2-3.69-1.21-3.67-1.23L405,355.26,401.37,354l-3.61-1.26-3.58-1.28-3.56-1.28-3.42-1.3-3.4-1.31-3.37-1.31-3.35-1.3-3.33-1.3-3.31-1.3-3.28-1.3-3.26-1.3-3.24-1.29-3.22-1.29-3.2-1.28-3.17-1.28-3-1.28-3-1.27-3-1.25-2.94-1.24-2.91-1.23-2.89-1.2L330.5,326l-2.84-1.17-2.82-1.17-2.79-1.14-2.77-1.13-2.74-1.11-2.63-1-2.61-1-2.59-.94-2.56-.92-2.55-.89-2.52-.88-2.5-.85L296.1,313l-2.46-.81-2.44-.78-2.42-.77-2.4-.74-2.33-.69-2.31-.7-2.3-.7-2.29-.7-2.27-.7-2.26-.7-2.24-.71-2.23-.7-2.22-.7-2.2-.71-2.19-.7-2.17-.71-2.12-.7-2.11-.71-2.09-.7-2.08-.71-2.06-.7-2-.7-2-.7-2-.69-2-.7-2-.69-2-.69-2-.69-1.91-.68-1.9-.67-1.89-.67-1.87-.67-1.86-.67-1.85-.66-1.84-.65-1.82-.66-1.81-.65-1.79-.64-1.78-.65-1.77-.64-1.72-.61-1.71-.61-1.69-.61-1.68-.6-1.67-.59-1.66-.59L201,281l-1.63-.58-1.62-.58-1.61-.57-1.59-.56-1.58-.56-1.43-.51-1.43-.49-1.41-.49-1.4-.49-1.39-.47-1.38-.47-1.37-.46-1.35-.46-1.35-.45-1.33-.44L177.8,273l-1.31-.43-1.28-.39-1.26-.39-1.26-.38-1.24-.37-1.24-.36-1.22-.36-1.21-.35-1.21-.34-1.19-.34-1.18-.32-1.17-.32-1.16-.32-1.13-.27-1.12-.27-1.11-.27-1.1-.25-1.09-.25-1.08-.24-1.07-.24-1.07-.23-1-.22-1-.21-1-.21-1-.2-1-.2-1-.19-1-.19-1-.19-1-.19-1-.18-1-.18-1-.19-1-.18-1-.17-.95-.18-.94-.18-.94-.17-.93-.17-.92-.17-.91-.17-.91-.16-.91-.17-.89-.16-.89-.16-.88-.16-.88-.15-.87-.16-.86-.15-.86-.15-.85-.15-.85-.15-.83-.14-.83-.15-.83-.14-.82-.14-.81-.14L119,260l-.8-.14-.79-.13-.79-.13-4.15-.51-4-.47-3.77-.42-3.58-.38-3.38-.34-3.19-.3-3-.26-2.81-.22-2.61-.19-2.43-.16-2.23-.13-2-.1L77.62,256,75.94,256l-1.52,0L73,255.88l-1.22,0-1.07,0-.91,0-.75,0-.59,0h-.77l-.47,0-.55,0-.63-.06-.7-.08-.79-.1-.86-.12-.94-.14-1-.15-1.09-.16-1.17-.18-1.24-.18-1.33-.2-1.07-.15L54.8,254l-1.06-.17-1.07-.19-1.07-.19-1.06-.21L49.48,253l-1.06-.23-1.05-.23-1.06-.25L45.26,252l-1-.27L42,251.21l-2.16-.69-2.11-.81-2-1-2-1.06-1.91-1.18L30,245.22l-1.75-1.41-1.67-1.52L25,240.67,23.48,239l-1.38-1.82-1-1.73-.91-1.82-.78-1.92-.66-2-.54-2.19-.41-2.36-.3-2.55-.18-2.76-.07-3,.05-3.24.16-3.52.26-3.81.06-1.79.16-5,.24-7.48.3-9.38L18.78,172l.36-11.27.36-11.27.34-10.64.31-9.38.24-7.47.15-5,.06-1.79H.75"/></g><path class="cls-2" d="M122.89,97.13v93.45q0,13.9,7,21.17T148,219a75.08,75.08,0,0,0,25.63-4q11.09-4,17.72-10.52V97.13H211.5V216.85a99.76,99.76,0,0,0,1.79,18H192.76q-1-7.28-1.53-14.28a79.12,79.12,0,0,1-16.7,9.43A94.77,94.77,0,0,1,158,235.66a59.63,59.63,0,0,1-12.49,1.46q-22.19,0-32.45-12.17t-10.26-31.82v-96Z"/><path class="cls-2" d="M254,35H274.1v73.43q6.12-5.22,16.64-9.37T315.41,95q26.4,0,40.48,18.36T370,163.81q0,33.8-16.44,53.42T298.2,236.87q-9,0-21.8-1T254,233.81ZM274.1,216.47q10.2,5.22,28.18,5.22,24.36,0,35.38-16.63t11-39q0-26.25-10.2-40.09t-28.05-13.84A65.57,65.57,0,0,0,290,115.36a54.79,54.79,0,0,0-15.88,7.78Z"/><path class="cls-2" d="M402.62,52.5a12.56,12.56,0,0,1,3.32-8.41,11.07,11.07,0,0,1,8.8-3.83,10.73,10.73,0,0,1,8.6,3.83,12.68,12.68,0,0,1,3.25,8.41A11.75,11.75,0,0,1,423,61.24a11.45,11.45,0,0,1-8.28,3.5,11.79,11.79,0,0,1-8.48-3.5A11.63,11.63,0,0,1,402.62,52.5Zm2,44.63h20.15v137.7H404.66Z"/><path class="cls-2" d="M526.81,237.12q-32.38,0-49-20t-16.58-53q0-29.58,17.72-49.34T526.17,95q30.09,0,46.47,20.53T589,166.61q0,29.07-17.22,49.79T526.81,237.12Zm-.9-16.19a34,34,0,0,0,18.49-5q7.9-5,15.75-18T568,162.66a62.23,62.23,0,0,0-10.77-35.51q-10.79-16-31.56-16t-32.07,15.3q-11.28,15.3-11.28,40,0,21.16,8.1,32.89T506.73,216A36.71,36.71,0,0,0,525.91,220.93Z"/></g></g></svg>